<?xml version="1.0" ?><svg enable-background="new 0 0 32 32" id="Line_x5F_editable" version="1.1" viewBox="0 0 32 32" xml:space="preserve" xmlns="http://www.w3.org/2000/svg" xmlns:xlink="http://www.w3.org/1999/xlink"><path d="  M21,22l-1.944,2.377c-4.854-1.732-8.701-5.58-10.434-10.433L11,12L9,6H6.687C4.651,6,3.001,7.65,3,9.686v0  C2.997,20.904,12.09,30,23.308,30h0C25.347,30,27,28.347,27,26.308V24L21,22z" fill="none" id="XMLID_899_" stroke="#FFFFFF" stroke-linecap="round" stroke-linejoin="round" stroke-miterlimit="10" stroke-width="2"/><line fill="none" id="XMLID_898_" stroke="#FFFFFF" stroke-linecap="round" stroke-linejoin="round" stroke-miterlimit="10" stroke-width="2" x1="22" x2="22" y1="7" y2="11"/><line fill="none" id="XMLID_897_" stroke="#FFFFFF" stroke-linecap="round" stroke-linejoin="round" stroke-miterlimit="10" stroke-width="2" x1="20" x2="24" y1="9" y2="9"/><path d="  M27,3H17c-1.105,0-2,0.895-2,2v8c0,1.105,0.895,2,2,2h1v4l4.8-4H27c1.105,0,2-0.895,2-2V5C29,3.895,28.105,3,27,3z" fill="none" id="XMLID_896_" stroke="#FFFFFF" stroke-linecap="round" stroke-linejoin="round" stroke-miterlimit="10" stroke-width="2"/></svg>